<?xml version="1.0" encoding="UTF-8" standalone="no"?>
<!DOCTYPE svg PUBLIC "-//W3C//DTD SVG 1.1//EN" "http://www.w3.org/Graphics/SVG/1.1/DTD/svg11.dtd">
<svg version="1.1" xmlns="http://www.w3.org/2000/svg" xmlns:xlink="http://www.w3.org/1999/xlink" preserveAspectRatio="xMidYMid meet" viewBox="0 0 640 640" width="640" height="640"><defs><path d="M97.58 82.75C104.44 82.75 138.73 82.75 200.46 82.75L200.46 64C139.64 64 105.85 64 99.1 64C48.36 64 6.32 74.44 6.32 87.5C6.32 89.27 6.32 98.1 6.32 114L79.12 114L79.12 87.5C84.41 84.33 90.56 82.75 97.58 82.75Z" id="a1Y4Xpu95m"></path><path d="M443.13 64L443.13 82.75C504.3 82.75 538.29 82.75 545.08 82.75C555.6 82.75 564.47 84.79 564.47 87.5C564.47 89.27 564.47 98.1 564.47 114L637.27 114C637.27 98.1 637.27 89.27 637.27 87.5C637.27 74.44 596.37 64 545.63 64C531.96 64 497.8 64 443.13 64Z" id="b8M0oKHTyF"></path><path d="M546.01 406.44C539.15 406.44 504.86 406.44 443.13 406.44L443.13 425.58C504.86 425.58 539.15 425.58 546.01 425.58C596.75 425.58 637.27 414.75 637.27 401.69C637.27 399.94 637.27 391.24 637.27 375.58L564.47 375.58L564.47 401.69C559.18 404.85 553.02 406.44 546.01 406.44Z" id="a2ZDvcUQ2X"></path><path d="M79.12 401.68C79.12 399.94 79.12 391.24 79.12 375.58L6.32 375.58C6.32 391.24 6.32 399.94 6.32 401.68C6.32 414.75 48.36 425.58 99.1 425.58C105.85 425.58 139.64 425.58 200.46 425.58L200.46 406.44L97.58 406.44C85.27 405.07 79.12 403.49 79.12 401.68Z" id="f63R9nlqdj"></path></defs><g><g><g><use xlink:href="#a1Y4Xpu95m" opacity="1" fill="#ffffff" fill-opacity="1"></use><g><use xlink:href="#a1Y4Xpu95m" opacity="1" fill-opacity="0" stroke="#000000" stroke-width="1" stroke-opacity="0"></use></g></g><g><use xlink:href="#b8M0oKHTyF" opacity="1" fill="#ffffff" fill-opacity="1"></use><g><use xlink:href="#b8M0oKHTyF" opacity="1" fill-opacity="0" stroke="#000000" stroke-width="1" stroke-opacity="0"></use></g></g><g><use xlink:href="#a2ZDvcUQ2X" opacity="1" fill="#ffffff" fill-opacity="1"></use><g><use xlink:href="#a2ZDvcUQ2X" opacity="1" fill-opacity="0" stroke="#000000" stroke-width="1" stroke-opacity="0"></use></g></g><g><use xlink:href="#f63R9nlqdj" opacity="1" fill="#ffffff" fill-opacity="1"></use><g><use xlink:href="#f63R9nlqdj" opacity="1" fill-opacity="0" stroke="#000000" stroke-width="1" stroke-opacity="0"></use></g></g></g></g></svg>